<svg xmlns="http://www.w3.org/2000/svg" viewBox="0 0 900 620"><defs><linearGradient id="bg" x1="0" x2="1" y1="0" y2="1"><stop offset="0" stop-color="#dbeafe"/><stop offset=".52" stop-color="#ecfdf5"/><stop offset="1" stop-color="#ffedd5"/></linearGradient><filter id="s"><feDropShadow dx="0" dy="22" stdDeviation="26" flood-color="#0f172a" flood-opacity=".18"/></filter></defs><rect width="900" height="620" rx="44" fill="url(#bg)"/><g filter="url(#s)"><rect x="140" y="150" width="620" height="350" rx="32" fill="#fff" opacity=".92"/><rect x="190" y="205" width="210" height="210" rx="26" fill="#2563eb"/><path d="M236 252h118l-14 118h-90z" fill="#fff"/><path d="M258 252a37 37 0 0 1 74 0" fill="none" stroke="#10b981" stroke-width="16" stroke-linecap="round"/><circle cx="295" cy="320" r="23" fill="#f97316"/><rect x="445" y="215" width="210" height="34" rx="17" fill="#1f2937"/><rect x="445" y="275" width="260" height="22" rx="11" fill="#93c5fd"/><rect x="445" y="322" width="235" height="22" rx="11" fill="#86efac"/><rect x="445" y="382" width="130" height="48" rx="24" fill="#f97316"/></g><circle cx="738" cy="130" r="54" fill="#10b981" opacity=".24"/><circle cx="127" cy="498" r="78" fill="#2563eb" opacity=".15"/></svg>
